<?xml version="1.0" encoding="UTF-8"?>
<svg version="1.1" xmlns="http://www.w3.org/2000/svg" width="256" height="256">
<path d="M0 0 C1.55678467 0.34417969 1.55678467 0.34417969 3.14501953 0.6953125 C16.75129374 3.83570124 30.4451453 8.10716192 42.625 15.0625 C42.625 15.7225 42.625 16.3825 42.625 17.0625 C28.41460516 18.36673705 15.67282288 18.83098053 2.00927734 14.24755859 C-8.13372549 10.86261019 -16.3680715 11.88112501 -26.5625 14.6875 C-27.56047607 14.95385254 -28.55845215 15.22020508 -29.58666992 15.49462891 C-36.86177318 17.49553139 -43.78737468 19.96574764 -50.70703125 22.9609375 C-53.375 24.0625 -53.375 24.0625 -55.375 24.0625 C-55.3108968 53.78599995 -55.3108968 53.78599995 -43.375 80.0625 C-43.42140625 78.81855469 -43.4678125 77.57460937 -43.515625 76.29296875 C-43.90850441 61.377047 -41.83977404 51.28855993 -31.55078125 40.07421875 C-16.20604256 25.0217608 7.29185593 19.98255563 28.0625 19.9375 C29.91687163 19.96874092 31.77121904 20.00623009 33.625 20.0625 C32.94378911 23.56293911 31.50981381 26.2844817 29.8125 29.40625 C26.34063455 36.23397584 24.4596189 43.1540601 22.625 50.5625 C19.28239841 64.06037844 15.17416531 78.65826937 3.015625 86.8125 C-5.2909421 91.58533413 -12.19595021 93.20842609 -21.6875 93.375 C-22.39414795 93.39288574 -23.1007959 93.41077148 -23.82885742 93.42919922 C-28.90818776 93.4206656 -28.90818776 93.4206656 -31.35546875 91.54296875 C-31.69191406 91.05441406 -32.02835938 90.56585938 -32.375 90.0625 C-26.52125798 74.40083261 -19.29117816 60.04524899 -7.375 48.0625 C-24.6037796 60.9840847 -34.39989293 79.8103342 -40.375 100.0625 C-43.86859375 100.0625 -44.17069819 99.72135189 -46.5625 97.375 C-61.47400944 81.7068812 -66.62190393 60.08463892 -67.375 39.0625 C-67.41286621 38.1844873 -67.45073242 37.30647461 -67.48974609 36.40185547 C-67.607479 33.41382414 -67.68357555 30.42708337 -67.75 27.4375 C-67.78826904 26.46417725 -67.82653809 25.49085449 -67.8659668 24.48803711 C-67.89592584 21.92575068 -67.85268114 19.57997687 -67.375 17.0625 C-65.37890625 15.15234375 -65.37890625 15.15234375 -62.375 14.0625 C-61.0820771 13.4572582 -59.79194745 12.84603119 -58.50390625 12.23046875 C-46.42942269 6.91240731 -34.19794715 3.12633543 -21.375 0.0625 C-20.15006836 -0.27140747 -20.15006836 -0.27140747 -18.90039062 -0.61206055 C-12.14746603 -2.28358315 -6.72141014 -1.56101636 0 0 Z " fill="#98BD54" transform="translate(138.375,33.9375)"/>
<path d="M0 0 C4.29143638 2.35860047 6.89934953 4.87865099 9.6875 8.875 C10.3475 8.153125 11.0075 7.43125 11.6875 6.6875 C17.0886274 1.2863726 23.13401294 -2.13165929 30.8125 -2.5 C37.09914827 -2.41700794 42.72858651 0.17188044 47.359375 4.40234375 C51.72463982 9.44807632 53.57771076 14.19005496 53.6875 20.875 C52.60277788 29.75939073 47.93484484 37.17418763 42.125 43.75 C41.5997876 44.35223389 41.0745752 44.95446777 40.53344727 45.57495117 C33.1011142 53.95737393 24.61962647 61.05865735 15.90234375 68.0625 C13.65996433 69.83626357 13.65996433 69.83626357 11.6875 71.875 C8.05187503 71.55649439 5.74327264 69.64269058 2.9375 67.4375 C2.13828125 66.82003906 1.3390625 66.20257813 0.515625 65.56640625 C-0.08765625 65.00824219 -0.6909375 64.45007813 -1.3125 63.875 C-1.3125 63.215 -1.3125 62.555 -1.3125 61.875 C-1.87453125 61.6275 -2.4365625 61.38 -3.015625 61.125 C-5.70342569 59.66225133 -7.77655482 57.90695127 -10.0625 55.875 C-11.26132813 54.823125 -11.26132813 54.823125 -12.484375 53.75 C-14.3125 51.875 -14.3125 51.875 -14.3125 49.875 C-15.7975 49.38 -15.7975 49.38 -17.3125 48.875 C-25.15938748 40.9085409 -32.48889747 31.12948426 -32.9375 19.625 C-32.52987159 12.53782431 -30.48928777 8.05178777 -25.5 3.0625 C-17.1594953 -2.66137577 -9.32643032 -4.30237113 0 0 Z M5.6875 20.875 C5.6875 24.505 5.6875 28.135 5.6875 31.875 C2.0575 31.875 -1.5725 31.875 -5.3125 31.875 C-5.3125 34.515 -5.3125 37.155 -5.3125 39.875 C-1.6825 39.875 1.9475 39.875 5.6875 39.875 C5.6875 43.835 5.6875 47.795 5.6875 51.875 C9.69004456 51.96681134 9.69004456 51.96681134 13.6875 51.875 C14.97362676 50.81521067 14.97362676 50.81521067 14.78515625 48.37109375 C14.77355469 47.36175781 14.76195312 46.35242188 14.75 45.3125 C14.729375 43.518125 14.70875 41.72375 14.6875 39.875 C18.3175 39.875 21.9475 39.875 25.6875 39.875 C25.6875 37.235 25.6875 34.595 25.6875 31.875 C22.0575 31.875 18.4275 31.875 14.6875 31.875 C14.6875 28.245 14.6875 24.615 14.6875 20.875 C11.7175 20.875 8.7475 20.875 5.6875 20.875 Z " fill="#98BC55" transform="translate(117.3125,137.125)"/>
<path d="M0 0 C2 0.3125 2 0.3125 4 1 C4.495 1.99 4.495 1.99 5 3 C5.66 2.34 6.32 1.68 7 1 C9.625 1.375 9.625 1.375 12 2 C11.43918157 18.32175011 9.17888095 30.5149508 0.09765625 44.3112793 C-0.92859013 45.89013744 -1.88712031 47.51243653 -2.83984375 49.13671875 C-5.51099599 52.6773238 -8.39606853 54.62007175 -12.125 56.9375 C-13.46788573 57.80400937 -14.81033254 58.67119933 -16.15234375 59.5390625 C-16.80702637 59.95704102 -17.46170898 60.37501953 -18.13623047 60.80566406 C-28.67026707 66.86057742 -28.67026707 66.86057742 -34.63671875 76.71875 C-34.99613956 78.69683898 -35.32077182 80.68165718 -35.60546875 82.671875 C-36 85 -36 85 -37 86 C-38.47652664 86.09880797 -39.95767236 86.13079245 -41.4375 86.1328125 C-42.77941406 86.13474609 -42.77941406 86.13474609 -44.1484375 86.13671875 C-45.55996094 86.13091797 -45.55996094 86.13091797 -47 86.125 C-48.41152344 86.13080078 -48.41152344 86.13080078 -49.8515625 86.13671875 C-50.74617187 86.13542969 -51.64078125 86.13414062 -52.5625 86.1328125 C-53.38878906 86.13168457 -54.21507812 86.13055664 -55.06640625 86.12939453 C-57 86 -57 86 -58 85 C-57.93128792 71.99623884 -56.51513872 57.60099518 -47.75 47.375 C-42.64540659 42.96648751 -37.64691817 39.26650336 -31.625 36.1875 C-26.45074714 33.47101725 -22.47485651 30.1035818 -18.2890625 26.05078125 C-16 24 -16 24 -13.2265625 22.421875 C-12.12441406 21.71804687 -12.12441406 21.71804687 -11 21 C-10.66659529 17.95804573 -10.66659529 17.95804573 -11 15 C-10.67 14.34 -10.34 13.68 -10 13 C-9.34 13 -8.68 13 -8 13 C-7.67 11.02 -7.34 9.04 -7 7 C-6.38125 6.938125 -5.7625 6.87625 -5.125 6.8125 C-2.73182415 6.17775641 -2.73182415 6.17775641 -1.8125 3.5 C-1.544375 2.675 -1.27625 1.85 -1 1 C-0.67 0.67 -0.34 0.34 0 0 Z M-6 24 C-6.05027344 24.86882812 -6.10054687 25.73765625 -6.15234375 26.6328125 C-7.21993615 30.8736634 -9.44582446 33.0112382 -12.5625 35.875 C-13.08263672 36.37257813 -13.60277344 36.87015625 -14.13867188 37.3828125 C-15.41467789 38.60028612 -16.70586944 39.80180992 -18 41 C-14.46671423 41 -13.29786504 39.97345805 -10.6953125 37.7109375 C-7.44541405 34.43108607 -4.73343001 30.71196561 -2 27 C-2.66 26.67 -3.32 26.34 -4 26 C-4 25.34 -4 24.68 -4 24 C-4.66 24 -5.32 24 -6 24 Z " fill="#B98E75" transform="translate(187,155)"/>
<path d="M0 0 C3.82163907 1.55696407 6.18618495 4.03408684 9 7 C9.33 7.33 9.66 7.66 10 8 C10.04063832 9.66617115 10.042721 11.33388095 10 13 C10.99 13.33 11.98 13.66 13 14 C13.020625 15.2375 13.04125 16.475 13.0625 17.75 C13.26714592 19.97581109 13.26714592 19.97581109 14 22 C16.85681512 23.99832351 16.85681512 23.99832351 19.07421875 24.9609375 C21.21821087 26.11773649 22.34938155 27.35215467 23.9375 29.1875 C27.98944344 33.48922078 32.96153632 35.99592735 38.13842773 38.71557617 C47.4273505 43.64775748 53.33175256 49.70885875 57.0078125 59.75390625 C59.30865344 67.96321737 59.95816281 76.49659186 60 85 C58.41062444 86.58937556 56.76100154 86.12981143 54.5625 86.1328125 C53.22058594 86.13474609 53.22058594 86.13474609 51.8515625 86.13671875 C50.44003906 86.13091797 50.44003906 86.13091797 49 86.125 C47.58847656 86.13080078 47.58847656 86.13080078 46.1484375 86.13671875 C45.25382812 86.13542969 44.35921875 86.13414062 43.4375 86.1328125 C42.61121094 86.13168457 41.78492188 86.13055664 40.93359375 86.12939453 C39 86 39 86 38 85 C37.86798654 83.60652455 37.76941967 82.20981548 37.6875 80.8125 C36.99258904 74.43744729 34.27389145 70.87095852 29.375 66.875 C26.31334831 64.52689028 23.18762819 62.51378809 19.83203125 60.625 C5.61731517 52.35759739 -3.71309838 40.11435326 -8 24 C-8.46210393 21.34357799 -8.86149196 18.73374415 -9.1875 16.0625 C-9.28224609 15.38509766 -9.37699219 14.70769531 -9.47460938 14.00976562 C-10.05473693 9.39088745 -9.83246781 5.52838874 -9 1 C-7.88625 1.20625 -6.7725 1.4125 -5.625 1.625 C-3.830625 1.810625 -3.830625 1.810625 -2 2 C-1.34 1.34 -0.68 0.68 0 0 Z M6 24 C5.10425328 25.70781156 5.10425328 25.70781156 5 28 C6.72434675 30.81599796 6.72434675 30.81599796 9.1875 33.5625 C10.38439453 34.98755859 10.38439453 34.98755859 11.60546875 36.44140625 C13.63571551 38.61075638 15.55650964 40.33168589 18 42 C18.66 41.67 19.32 41.34 20 41 C18.95199219 40.03900391 18.95199219 40.03900391 17.8828125 39.05859375 C8.84358524 30.46748682 8.84358524 30.46748682 8 24 C7.34 24 6.68 24 6 24 Z " fill="#B88E74" transform="translate(66,155)"/>
<path d="M0 0 C1.55678467 0.34417969 1.55678467 0.34417969 3.14501953 0.6953125 C16.75129374 3.83570124 30.4451453 8.10716192 42.625 15.0625 C42.625 15.7225 42.625 16.3825 42.625 17.0625 C28.41460516 18.36673705 15.67282288 18.83098053 2.00927734 14.24755859 C-8.13372549 10.86261019 -16.3680715 11.88112501 -26.5625 14.6875 C-27.56047607 14.95385254 -28.55845215 15.22020508 -29.58666992 15.49462891 C-36.86177318 17.49553139 -43.78737468 19.96574764 -50.70703125 22.9609375 C-53.375 24.0625 -53.375 24.0625 -55.375 24.0625 C-55.3108968 53.78599995 -55.3108968 53.78599995 -43.375 80.0625 C-43.42140625 78.81855469 -43.4678125 77.57460937 -43.515625 76.29296875 C-44.06542368 55.16711383 -44.06542368 55.16711383 -37.73828125 48.28125 C-37.28839844 47.8790625 -36.83851562 47.476875 -36.375 47.0625 C-36.54 47.825625 -36.705 48.58875 -36.875 49.375 C-37.50607381 52.76702174 -37.47318899 54.76793302 -36.375 58.0625 C-36.705 58.7225 -37.035 59.3825 -37.375 60.0625 C-38.695 60.0625 -40.015 60.0625 -41.375 60.0625 C-41.045 67.9825 -40.715 75.9025 -40.375 84.0625 C-37.405 83.0725 -37.405 83.0725 -34.375 82.0625 C-36.355 88.0025 -38.335 93.9425 -40.375 100.0625 C-43.86859375 100.0625 -44.17069819 99.72135189 -46.5625 97.375 C-61.47400944 81.7068812 -66.62190393 60.08463892 -67.375 39.0625 C-67.41286621 38.1844873 -67.45073242 37.30647461 -67.48974609 36.40185547 C-67.607479 33.41382414 -67.68357555 30.42708337 -67.75 27.4375 C-67.78826904 26.46417725 -67.82653809 25.49085449 -67.8659668 24.48803711 C-67.89592584 21.92575068 -67.85268114 19.57997687 -67.375 17.0625 C-65.37890625 15.15234375 -65.37890625 15.15234375 -62.375 14.0625 C-61.0820771 13.4572582 -59.79194745 12.84603119 -58.50390625 12.23046875 C-46.42942269 6.91240731 -34.19794715 3.12633543 -21.375 0.0625 C-20.15006836 -0.27140747 -20.15006836 -0.27140747 -18.90039062 -0.61206055 C-12.14746603 -2.28358315 -6.72141014 -1.56101636 0 0 Z " fill="#9BBB57" transform="translate(138.375,33.9375)"/>
<path d="M0 0 C5.61228262 3.75787455 8.6733424 8.69093077 9.984375 15.24609375 C10.86877441 23.92928797 6.94697464 32.30731222 1.60546875 38.98828125 C0.6383648 40.12512788 -0.33988843 41.25256848 -1.328125 42.37109375 C-1.8533374 42.97332764 -2.3785498 43.57556152 -2.91967773 44.19604492 C-7.82647988 49.73009319 -13.12366444 54.71409014 -18.765625 59.49609375 C-19.75304687 60.33527344 -20.74046875 61.17445313 -21.7578125 62.0390625 C-25.69273075 65.32164019 -29.16533624 68.19594937 -33.765625 70.49609375 C-33.435625 63.89609375 -33.105625 57.29609375 -32.765625 50.49609375 C-31.280625 50.00109375 -31.280625 50.00109375 -29.765625 49.49609375 C-29.435625 45.86609375 -29.105625 42.23609375 -28.765625 38.49609375 C-25.135625 38.49609375 -21.505625 38.49609375 -17.765625 38.49609375 C-17.765625 35.85609375 -17.765625 33.21609375 -17.765625 30.49609375 C-21.395625 30.49609375 -25.025625 30.49609375 -28.765625 30.49609375 C-28.765625 26.86609375 -28.765625 23.23609375 -28.765625 19.49609375 C-30.085625 19.49609375 -31.405625 19.49609375 -32.765625 19.49609375 C-33.62581047 7.68287999 -33.62581047 7.68287999 -30.703125 3.99609375 C-21.13007716 -4.15118101 -11.21642228 -6.14813209 0 0 Z " fill="#499485" transform="translate(160.765625,138.50390625)"/>
<path d="M0 0 C0.99 0 1.98 0 3 0 C3.72426766 29.84354166 2.20489222 58.16442784 -19.08203125 81.13671875 C-21 83 -21 83 -23 84 C-25.216519 83.75213734 -27.42501152 83.42916475 -29.625 83.0625 C-30.81351563 82.86785156 -32.00203125 82.67320312 -33.2265625 82.47265625 C-34.59941406 82.23869141 -34.59941406 82.23869141 -36 82 C-34.41981214 78.04953035 -31.82328396 75.75515409 -28.75 72.875 C-15.34319381 59.79497654 -10.15857327 41.89603558 -9.91015625 23.40234375 C-9.67018455 9.66782336 -9.67018455 9.66782336 -5.5625 5 C-3.69140625 3.3125 -3.69140625 3.3125 -2 2 C-1.34 1.34 -0.68 0.68 0 0 Z " fill="#4C9184" transform="translate(181,51)"/>
<path d="M0 0 C18.6566566 3.47808804 37.34307811 7.48802092 54 17 C54 17.66 54 18.32 54 19 C37.64212498 20.50133384 23.77438428 20.07581065 8.17456055 14.68017578 C5.83033638 13.94693131 3.4085254 13.48170508 1 13 C0.67 8.71 0.34 4.42 0 0 Z " fill="#519385" transform="translate(127,32)"/>
<path d="M0 0 C0.93065133 2.60582371 1.14917407 3.64198224 0.0625 6.25 C-0.288125 6.8275 -0.63875 7.405 -1 8 C-0.01 9.485 -0.01 9.485 1 11 C0.67 11.66 0.34 12.32 0 13 C-1.32 13 -2.64 13 -4 13 C-3.67 20.92 -3.34 28.84 -3 37 C-1.02 36.34 0.96 35.68 3 35 C1.02 40.94 -0.96 46.88 -3 53 C-3.99 53 -4.98 53 -6 53 C-8.1875 50.5 -8.1875 50.5 -10 48 C-9.34 48 -8.68 48 -8 48 C-8.20625 47.2575 -8.4125 46.515 -8.625 45.75 C-9.04408751 42.67669159 -8.61949011 41.57213134 -7 39 C-6.34 39 -5.68 39 -5 39 C-5.95336021 37.68388323 -6.91285774 36.37221039 -7.875 35.0625 C-8.40867187 34.33160156 -8.94234375 33.60070312 -9.4921875 32.84765625 C-10.88012104 30.88901765 -10.88012104 30.88901765 -13 30 C-12.67 28.02 -12.34 26.04 -12 24 C-9.30351311 26.69648689 -7.85215576 29.66611962 -6 33 C-6.04640625 31.75605469 -6.0928125 30.51210937 -6.140625 29.23046875 C-6.42170717 18.38810524 -6.21602354 9.32403531 0 0 Z " fill="#9DB961" transform="translate(101,81)"/>
<path d="M0 0 C2 0.3125 2 0.3125 4 1 C4.33 1.66 4.66 2.32 5 3 C5.66 3.33 6.32 3.66 7 4 C6.52820313 4.69738281 6.05640625 5.39476562 5.5703125 6.11328125 C3.86774036 9.24313402 3.35515764 11.67361911 2.875 15.1875 C2.0806175 20.83876501 2.0806175 20.83876501 1 23 C0.071875 22.67 -0.85625 22.34 -1.8125 22 C-4.92029291 20.85032996 -4.92029291 20.85032996 -8 21 C-8.33 19.35 -8.66 17.7 -9 16 C-9.66 16.66 -10.32 17.32 -11 18 C-10.67 16.35 -10.34 14.7 -10 13 C-9.34 13 -8.68 13 -8 13 C-7.67 11.02 -7.34 9.04 -7 7 C-6.38125 6.938125 -5.7625 6.87625 -5.125 6.8125 C-2.73182415 6.17775641 -2.73182415 6.17775641 -1.8125 3.5 C-1.544375 2.675 -1.27625 1.85 -1 1 C-0.67 0.67 -0.34 0.34 0 0 Z " fill="#B1866E" transform="translate(187,155)"/>
<path d="M0 0 C0.66 0.66 1.32 1.32 2 2 C3.051875 2.99 3.051875 2.99 4.125 4 C6 6 6 6 6 8 C6.639375 8.5775 7.27875 9.155 7.9375 9.75 C10.44350418 12.48382274 10.66980509 14.36785602 11 18 C11.66 18 12.32 18 13 18 C12.875 19.875 12.875 19.875 12 22 C9.125 23.375 9.125 23.375 6 24 C2.23998731 21.49332487 2.10337508 19.95779605 0.875 15.6875 C0.54242188 14.55699219 0.20984375 13.42648438 -0.1328125 12.26171875 C-2.19890062 4.49062153 -2.19890062 4.49062153 -1.0625 1.6875 C-0.711875 1.130625 -0.36125 0.57375 0 0 Z " fill="#B38468" transform="translate(65,156)"/>
<path d="M0 0 C-0.63065757 3.21852831 -1.78020695 5.50801069 -3.5625 8.25 C-4.01753906 8.95640625 -4.47257812 9.6628125 -4.94140625 10.390625 C-5.46541016 11.18726562 -5.46541016 11.18726562 -6 12 C-7 9 -7 9 -6 6 C-5.34 5.67 -4.68 5.34 -4 5 C-3.67 4.01 -3.34 3.02 -3 2 C-4.98 2.66 -6.96 3.32 -9 4 C-9 3.34 -9 2.68 -9 2 C-19.4378532 3.03022967 -28.96866399 4.84905274 -39 8 C-40.26714844 8.33 -41.53429687 8.66 -42.83984375 9 C-44.40412109 9.495 -44.40412109 9.495 -46 10 C-46.33 10.66 -46.66 11.32 -47 12 C-48.32 11.34 -49.64 10.68 -51 10 C-34.19622538 2.72777821 -18.29456016 -0.25448384 0 0 Z " fill="#A0B971" transform="translate(172,54)"/>
<path d="M0 0 C3.63 0 7.26 0 11 0 C11 3.96 11 7.92 11 12 C12.65 12 14.3 12 16 12 C16 18.27 16 24.54 16 31 C12.41087588 31 11.89142971 30.33563446 9.3125 28 C8.68988281 27.443125 8.06726563 26.88625 7.42578125 26.3125 C6.95527344 25.879375 6.48476562 25.44625 6 25 C8.07553648 24.4465236 9.84365964 24 12 24 C12.33 20.7 12.66 17.4 13 14 C12.01 13.67 11.02 13.34 10 13 C10 9.04 10 5.08 10 1 C6.7 1 3.4 1 0 1 C0 0.67 0 0.34 0 0 Z " fill="#8EB167" transform="translate(112,177)"/>
<path d="M0 0 C7.54331279 -0.60833168 12.73714035 0.64461029 19 5 C22.5022426 8.14018174 24.73748491 10.99974913 25.359375 15.73828125 C25.37325886 18.19225339 25.26975584 20.5622065 25 23 C23.35 23 21.7 23 20 23 C19.67 22.34 19.34 21.68 19 21 C19.99 21 20.98 21 22 21 C21.67 20.01 21.34 19.02 21 18 C21.33 17.01 21.66 16.02 22 15 C19.70887437 9.01761641 16.18010723 6.45340482 11 3 C9.11845117 2.55888435 7.21937362 2.1890733 5.3125 1.875 C4.31863281 1.70742187 3.32476562 1.53984375 2.30078125 1.3671875 C1.54152344 1.24601563 0.78226562 1.12484375 0 1 C0 0.67 0 0.34 0 0 Z " fill="#9DB872" transform="translate(103,135)"/>
<path d="M0 0 C0 0.66 0 1.32 0 2 C-0.99 2 -1.98 2 -3 2 C-2.67 2.99 -2.34 3.98 -2 5 C-3.32 5.33 -4.64 5.66 -6 6 C-6 16.56 -6 27.12 -6 38 C-6.99 38.495 -6.99 38.495 -8 39 C-8.86521366 30.81137074 -9.20829153 22.60421413 -9.375 14.375 C-9.41302734 13.40288574 -9.45105469 12.43077148 -9.49023438 11.42919922 C-9.52094627 8.85707797 -9.5063626 6.52241415 -9 4 C-6.6015625 1.9140625 -6.6015625 1.9140625 -4 1 C-2 0 -2 0 0 0 Z " fill="#A2B86D" transform="translate(80,47)"/>
<path d="M0 0 C2.875 0.3125 2.875 0.3125 6 1 C7.97749439 3.96624159 8.40230872 5.58462127 9 9 C9.33 9.99 9.66 10.98 10 12 C10.66 12.33 11.32 12.66 12 13 C8.25212088 12.49547781 4.67363066 11.91840767 1 11 C0.67 7.37 0.34 3.74 0 0 Z " fill="#4E9181" transform="translate(127,32)"/>
<path d="M0 0 C-3.03706764 1.59084495 -5.91056961 2.97194341 -9.1875 4 C-11.99964669 4.99987438 -13.25986102 5.61875719 -15 8 C-15.35169068 9.32860925 -15.68770276 10.66158328 -16 12 C-16.99 12.495 -16.99 12.495 -18 13 C-18 14.98 -18 16.96 -18 19 C-17.34 19.33 -16.68 19.66 -16 20 C-17.32 20 -18.64 20 -20 20 C-20.46187173 14.80650904 -20.71662965 11.1726667 -17.9375 6.625 C-12.78040768 2.01653453 -7.09395157 -2.28019872 0 0 Z " fill="#4B9478" transform="translate(148,136)"/>
<path d="M0 0 C2.97 0.495 2.97 0.495 6 1 C6 2.32 6 3.64 6 5 C4.68 5 3.36 5 2 5 C2.185625 5.7425 2.37125 6.485 2.5625 7.25 C3.18327251 12.57090725 2.55856674 17.68931933 2 23 C1.67 23 1.34 23 1 23 C0.63400603 20.4803886 0.28199149 17.96006672 -0.0625 15.4375 C-0.16626953 14.73302734 -0.27003906 14.02855469 -0.37695312 13.30273438 C-1.0046656 8.60571341 -0.87579081 4.66067698 0 0 Z " fill="#AE8D7A" transform="translate(57,156)"/>
<path d="M0 0 C0.66 0.33 1.32 0.66 2 1 C0.9375 2.9375 0.9375 2.9375 -1 5 C-4.6875 5.75 -4.6875 5.75 -8 6 C-8 6.66 -8 7.32 -8 8 C-9.6396875 8.8353125 -9.6396875 8.8353125 -11.3125 9.6875 C-14.68037367 11.58959869 -16.32185976 13.44629125 -18 17 C-18.66 16.67 -19.32 16.34 -20 16 C-15.88787094 8.33648675 -7.98159325 3.1926373 0 0 Z " fill="#A68E79" transform="translate(156,191)"/>
<path d="M0 0 C0.66 0 1.32 0 2 0 C2 0.99 2 1.98 2 3 C3.32 2.67 4.64 2.34 6 2 C6.99 3.485 6.99 3.485 8 5 C9.65 4.67 11.3 4.34 13 4 C11.421875 6.046875 11.421875 6.046875 9 8 C5.765625 7.953125 5.765625 7.953125 2.25 7.25 C1.07953125 7.02828125 -0.0909375 6.8065625 -1.296875 6.578125 C-2.18890625 6.38734375 -3.0809375 6.1965625 -4 6 C-2.84826645 3.53199953 -1.95216435 1.95216435 0 0 Z " fill="#4A8A7E" transform="translate(149,127)"/>
<path d="M0 0 C1 2 1 2 0.3125 4.375 C-1.11527013 7.23054026 -2.75292646 8.75292646 -5 11 C-7.28843195 14.42060355 -9.3414538 17.88408623 -10 22 C-10.66 22 -11.32 22 -12 22 C-12.33 22.99 -12.66 23.98 -13 25 C-13.33 24.34 -13.66 23.68 -14 23 C-10.73456203 14.4880006 -5.54986245 7.15566021 0 0 Z " fill="#9CB566" transform="translate(125,89)"/>
<path d="M0 0 C0.928125 0.103125 1.85625 0.20625 2.8125 0.3125 C-0.9375 3.3125 -0.9375 3.3125 -3.1875 3.3125 C-2.8575 10.5725 -2.5275 17.8325 -2.1875 25.3125 C-2.8475 24.9825 -3.5075 24.6525 -4.1875 24.3125 C-4.96627408 21.29034209 -5.1735777 18.16237049 -5.5 15.0625 C-5.66725586 13.77279297 -5.66725586 13.77279297 -5.83789062 12.45703125 C-6.26853201 8.49268713 -6.45412536 5.967471 -4.9296875 2.22265625 C-3.1875 0.3125 -3.1875 0.3125 0 0 Z " fill="#A0B86E" transform="translate(86.1875,54.6875)"/>
<path d="M0 0 C1.66611905 -0.042721 3.33382885 -0.04063832 5 0 C6 1 6 1 6.09765625 3.50390625 C6.08605469 4.51324219 6.07445312 5.52257813 6.0625 6.5625 C6.05347656 7.57441406 6.04445312 8.58632813 6.03515625 9.62890625 C6.02355469 10.41136719 6.01195312 11.19382812 6 12 C4.35 12 2.7 12 1 12 C0.875 7.25 0.875 7.25 2 5 C1.10636395 2.39068734 1.10636395 2.39068734 0 0 Z " fill="#8FB665" transform="translate(122,33)"/>
<path d="M0 0 C0.66 0 1.32 0 2 0 C1.69249629 2.14655501 1.3788634 4.29223285 1.0625 6.4375 C0.80146484 8.22994141 0.80146484 8.22994141 0.53515625 10.05859375 C0 13 0 13 -1 14 C-2.4887186 14.08669432 -3.981445 14.10703494 -5.47265625 14.09765625 C-6.37177734 14.09443359 -7.27089844 14.09121094 -8.19726562 14.08789062 C-9.14279297 14.07951172 -10.08832031 14.07113281 -11.0625 14.0625 C-12.01189453 14.05798828 -12.96128906 14.05347656 -13.93945312 14.04882812 C-16.29303065 14.0370011 -18.64648477 14.02052025 -21 14 C-21 13.67 -21 13.34 -21 13 C-20.03578125 12.93941406 -19.0715625 12.87882813 -18.078125 12.81640625 C-16.81484375 12.73261719 -15.5515625 12.64882812 -14.25 12.5625 C-12.99703125 12.48128906 -11.7440625 12.40007812 -10.453125 12.31640625 C-6.87635863 12.07746574 -6.87635863 12.07746574 -3 11 C-2.01 7.37 -1.02 3.74 0 0 Z " fill="#A58879" transform="translate(151,227)"/>
<path d="M0 0 C0.33 1.32 0.66 2.64 1 4 C3.62527189 4.05382106 6.24944713 4.09358313 8.875 4.125 C9.99455078 4.15013672 9.99455078 4.15013672 11.13671875 4.17578125 C13.09194461 4.1933959 15.04742021 4.10320189 17 4 C17.66 3.34 18.32 2.68 19 2 C20.66666667 2 22.33333333 2 24 2 C26.01822402 1.39072482 28.02416285 0.73519522 30 0 C30 0.66 30 1.32 30 2 C28.75108386 2.48198463 27.50081192 2.96045677 26.25 3.4375 C25.20585937 3.83775391 25.20585937 3.83775391 24.140625 4.24609375 C19.3822395 5.9219485 14.97177816 6.21374957 9.9375 6.25 C9.21755859 6.270625 8.49761719 6.29125 7.75585938 6.3125 C2.4633414 6.35181304 2.4633414 6.35181304 0.00390625 4.484375 C-0.32738281 3.99453125 -0.65867187 3.5046875 -1 3 C-0.67 2.01 -0.34 1.02 0 0 Z " fill="#9BAE74" transform="translate(107,121)"/>
<path d="M0 0 C0.66 0 1.32 0 2 0 C2.33 0.33 2.66 0.66 3 1 C3.99 1.33 4.98 1.66 6 2 C5.814375 2.5775 5.62875 3.155 5.4375 3.75 C4.95295981 6.24192097 5.10467265 7.63959152 6 10 C6.66 10.33 7.32 10.66 8 11 C8.625 13.5625 8.625 13.5625 9 16 C4.90519801 12.25618103 1.2551317 8.1331093 -1 3 C-0.67 2.01 -0.34 1.02 0 0 Z " fill="#9AB45F" transform="translate(82,113)"/>
<path d="M0 0 C0.99 0.33 1.98 0.66 3 1 C0.93942825 2.91877545 -1.12337063 4.83505798 -3.1875 6.75 C-3.76564453 7.28882813 -4.34378906 7.82765625 -4.93945312 8.3828125 C-8.19362878 11.39798091 -11.49155668 14.27781799 -15 17 C-15.66 16.67 -16.32 16.34 -17 16 C-16.3125 14.125 -16.3125 14.125 -15 12 C-14.236875 11.71125 -13.47375 11.4225 -12.6875 11.125 C-9.03238996 9.59495394 -7.47098408 7.04121118 -5 4 C-2.75 2.75 -2.75 2.75 -1 2 C-0.67 1.34 -0.34 0.68 0 0 Z " fill="#618B82" transform="translate(144,192)"/>
<path d="M0 0 C0.66 0 1.32 0 2 0 C0.70970987 6.19339263 -1.9964167 10.15289443 -6 15 C-6.93423645 11.98968256 -7.04449911 11.13349732 -6 8 C-5.360625 7.731875 -4.72125 7.46375 -4.0625 7.1875 C-1.661178 6.08838835 -1.661178 6.08838835 -0.75 2.875 C-0.5025 1.92625 -0.255 0.9775 0 0 Z " fill="#538A7B" transform="translate(167,164)"/>
<path d="M0 0 C1.60019088 3.99071995 0.30230373 6.57904389 -1.25 10.4375 C-1.68828125 11.54996094 -2.1265625 12.66242188 -2.578125 13.80859375 C-3.86813435 16.70402684 -5.30199811 19.32814408 -7 22 C-8 19 -8 19 -6.6875 15.875 C-5 13 -5 13 -3 12 C-2.53348793 9.87423218 -2.53348793 9.87423218 -2.375 7.4375 C-2.30023438 6.61121094 -2.22546875 5.78492187 -2.1484375 4.93359375 C-2.09945312 4.29550781 -2.05046875 3.65742187 -2 3 C-1.34 3 -0.68 3 0 3 C0 2.01 0 1.02 0 0 Z " fill="#A5BE78" transform="translate(158,89)"/>
<path d="M0 0 C1.18270192 3.54810575 0.43955475 5.48397369 -0.515625 9.0078125 C-1.29692014 12.22120382 -1.28041578 14.9406515 -0.4375 18.125 C0 20 0 20 -1 23 C-3.70733176 17.12153064 -4.31894821 10.12457216 -2.32421875 3.88671875 C-1.5 2.25 -1.5 2.25 0 0 Z " fill="#9CB06C" transform="translate(88,145)"/>
<path d="M0 0 C0.66 0 1.32 0 2 0 C1.54619105 1.89692143 1.08675008 3.79249595 0.625 5.6875 C0.36976563 6.74324219 0.11453125 7.79898438 -0.1484375 8.88671875 C-0.91905489 11.70406766 -1.85498543 14.31668325 -3 17 C-4.3582089 13.26039816 -3.62928896 10.59470752 -2.625 6.8125 C-2.34914062 5.74644531 -2.07328125 4.68039063 -1.7890625 3.58203125 C-1 1 -1 1 0 0 Z " fill="#558C7F" transform="translate(179,95)"/>
<path d="M0 0 C0.99 0.33 1.98 0.66 3 1 C0.03 3.97 -2.94 6.94 -6 10 C-6.33 9.01 -6.66 8.02 -7 7 C-5.0625 3.8125 -5.0625 3.8125 -3 1 C-2.01 1.33 -1.02 1.66 0 2 C0 1.34 0 0.68 0 0 Z " fill="#98B864" transform="translate(128,80)"/>
<path d="M0 0 C3.3 0 6.6 0 10 0 C10 0.33 10 0.66 10 1 C7.36 1 4.72 1 2 1 C2.33 3.97 2.66 6.94 3 10 C2.01 10.33 1.02 10.66 0 11 C0 7.37 0 3.74 0 0 Z " fill="#52897E" transform="translate(132,177)"/>
<path d="M0 0 C5.95712861 5.64359553 7.20342729 9.03427288 8 17 C7.34 17 6.68 17 6 17 C5.54427083 14.98177083 5.08854167 12.96354167 4.6328125 10.9453125 C4.09525572 8.79280036 4.09525572 8.79280036 2 7 C2 6.34 2 5.68 2 5 C1.34 4.34 0.68 3.68 0 3 C0 2.01 0 1.02 0 0 Z " fill="#4B8477" transform="translate(163,141)"/>
<path d="M0 0 C3.73745963 1.71529726 5.7453688 3.49279591 8 7 C7.75 9.3125 7.75 9.3125 7 11 C4.59424393 8.81482901 3.20464419 6.74080329 1.8125 3.8125 C1.46832031 3.09707031 1.12414062 2.38164062 0.76953125 1.64453125 C0.51558594 1.10183594 0.26164062 0.55914062 0 0 Z " fill="#AE8A7A" transform="translate(65,193)"/>
<path d="M0 0 C0.33 0 0.66 0 1 0 C1 3.3 1 6.6 1 10 C-0.65 10 -2.3 10 -4 10 C-4.33 9.34 -4.66 8.68 -5 8 C-4.01 8 -3.02 8 -2 8 C-2.33 7.01 -2.66 6.02 -3 5 C-2.67 4.34 -2.34 3.68 -2 3 C-1.34 3 -0.68 3 0 3 C0 2.01 0 1.02 0 0 Z " fill="#8AB466" transform="translate(127,148)"/>
<path d="M0 0 C-5.1778131 2.71218781 -10.30546308 4.68587609 -16 6 C-11.97115039 1.13180672 -6.24917557 -2.05051073 0 0 Z " fill="#538C7D" transform="translate(148,136)"/>
<path d="M0 0 C0.99 0 1.98 0 3 0 C2.875 1.875 2.875 1.875 2 4 C-0.875 5.375 -0.875 5.375 -4 6 C-4.99 5.34 -5.98 4.68 -7 4 C-7 3.34 -7 2.68 -7 2 C-6.01 1.67 -5.02 1.34 -4 1 C-4 1.66 -4 2.32 -4 3 C-2.68 2.67 -1.36 2.34 0 2 C0 1.34 0 0.68 0 0 Z " fill="#AB846F" transform="translate(75,174)"/>
<path d="M0 0 C3.3 0 6.6 0 10 0 C10 3.63 10 7.26 10 11 C9.67 11 9.34 11 9 11 C8.67 8.36 8.34 5.72 8 3 C5.36 2.34 2.72 1.68 0 1 C0 0.67 0 0.34 0 0 Z " fill="#9DBB64" transform="translate(112,178)"/>
<path d="M0 0 C0.99 0 1.98 0 3 0 C3.25 2.25 3.25 2.25 3 5 C1 7.3125 1 7.3125 -1 9 C-1.625 6.1875 -1.625 6.1875 -2 3 C-1.34 2.01 -0.68 1.02 0 0 Z " fill="#428D77" transform="translate(167,118)"/>
<path d="M0 0 C0 3 0 3 -1.42578125 4.5703125 C-2.04839844 5.08335938 -2.67101562 5.59640625 -3.3125 6.125 C-3.92738281 6.64320312 -4.54226562 7.16140625 -5.17578125 7.6953125 C-7 9 -7 9 -10 10 C-8.5741914 6.54804233 -6.90253666 4.8985744 -3.875 2.75 C-3.15054688 2.22921875 -2.42609375 1.7084375 -1.6796875 1.171875 C-1.12539062 0.78515625 -0.57109375 0.3984375 0 0 Z " fill="#9DBB71" transform="translate(148,112)"/>
<path d="M0 0 C0.66 0.66 1.32 1.32 2 2 C1.01 3.485 1.01 3.485 0 5 C0 5.99 0 6.98 0 8 C-1.98 5.69 -3.96 3.38 -6 1 C-3.03 1.495 -3.03 1.495 0 2 C0 1.34 0 0.68 0 0 Z " fill="#99B367" transform="translate(99,176)"/>
<path d="M0 0 C1.67542976 0.28604898 3.34385343 0.61781233 5 1 C5 3.31 5 5.62 5 8 C3.62437146 6.71034824 2.29233607 5.37310707 1 4 C1 3.34 1 2.68 1 2 C0.34 1.67 -0.32 1.34 -1 1 C-0.67 0.67 -0.34 0.34 0 0 Z " fill="#AB907C" transform="translate(194,156)"/>
<path d="M0 0 C0.66 0.33 1.32 0.66 2 1 C1.34 1.66 0.68 2.32 0 3 C1.98 3.66 3.96 4.32 6 5 C6 5.33 6 5.66 6 6 C2.7 6 -0.6 6 -4 6 C-2 2 -2 2 0 0 Z " fill="#528278" transform="translate(149,127)"/>
<path d="M0 0 C0 3.54709938 -0.57762678 4.01780191 -2.875 6.5625 C-3.40867188 7.16191406 -3.94234375 7.76132812 -4.4921875 8.37890625 C-5.63671654 9.60942322 -6.81169896 10.81169896 -8 12 C-8.33 11.34 -8.66 10.68 -9 10 C-7.8758824 8.70756532 -6.75067408 7.41607925 -5.625 6.125 C-4.99851563 5.40570313 -4.37203125 4.68640625 -3.7265625 3.9453125 C-2.52573166 2.5923402 -1.2791655 1.2791655 0 0 Z " fill="#619087" transform="translate(181,51)"/>
<path d="M0 0 C0.66 0 1.32 0 2 0 C4.66590937 4.55426184 5.31563182 7.73946963 5 13 C4.67 13 4.34 13 4 13 C3.80664062 12.38511719 3.61328125 11.77023438 3.4140625 11.13671875 C3.15367188 10.32847656 2.89328125 9.52023438 2.625 8.6875 C2.36976562 7.88699219 2.11453125 7.08648437 1.8515625 6.26171875 C1.01168189 3.77275472 1.01168189 3.77275472 -1 1 C-0.67 0.67 -0.34 0.34 0 0 Z " fill="#AA8C7D" transform="translate(100,223)"/>
<path d="M0 0 C0.95651196 2.58258228 1.03620881 3.8650399 0.3125 6.5625 C-1.12035293 9.22351258 -2.47085828 10.39821025 -5 12 C-4.67 10.35 -4.34 8.7 -4 7 C-3.34 7 -2.68 7 -2 7 C-1.855625 6.030625 -1.71125 5.06125 -1.5625 4.0625 C-1 1 -1 1 0 0 Z " fill="#A18870" transform="translate(181,161)"/>
<path d="M0 0 C5.28137429 0.51525603 8.57221156 2.25477117 13 5 C11 6 11 6 8.3984375 5.22265625 C6.90183594 4.64837891 6.90183594 4.64837891 5.375 4.0625 C4.37210938 3.68222656 3.36921875 3.30195313 2.3359375 2.91015625 C1.56507813 2.60980469 0.79421875 2.30945313 0 2 C0 1.34 0 0.68 0 0 Z " fill="#498277" transform="translate(150,135)"/>
<path d="M0 0 C0.33 0 0.66 0 1 0 C1 3.3 1 6.6 1 10 C-0.32 9.67 -1.64 9.34 -3 9 C-2.01 6.03 -1.02 3.06 0 0 Z " fill="#97BA6D" transform="translate(126,197)"/>
<path d="M0 0 C0.33 0.66 0.66 1.32 1 2 C-0.24420647 2.5345256 -1.49570936 3.05208611 -2.75 3.5625 C-3.44609375 3.85253906 -4.1421875 4.14257812 -4.859375 4.44140625 C-7.30012784 5.07831803 -8.6403655 4.80248831 -11 4 C-10.67 3.34 -10.34 2.68 -10 2 C-9.278125 2.04125 -8.55625 2.0825 -7.8125 2.125 C-4.79270631 1.99078695 -2.73064271 1.24829381 0 0 Z " fill="#9EBA69" transform="translate(136,121)"/>
<path d="M0 0 C0.99 0 1.98 0 3 0 C1.50164236 3.11197356 -0.13977927 6.08835016 -2 9 C-2.33 9 -2.66 9 -3 9 C-3 7.35 -3 5.7 -3 4 C-2.34 4 -1.68 4 -1 4 C-0.67 2.68 -0.34 1.36 0 0 Z " fill="#9DB763" transform="translate(111,98)"/>
<path d="M0 0 C1.32 0 2.64 0 4 0 C5.75 2.5 5.75 2.5 7 5 C4.69 4.34 2.38 3.68 0 3 C0 2.01 0 1.02 0 0 Z " fill="#BE9979" transform="translate(72,203)"/>
<path d="M0 0 C0.33 0.99 0.66 1.98 1 3 C-1.64 5.31 -4.28 7.62 -7 10 C-7 7 -7 7 -5.46875 5.17578125 C-4.8190625 4.56089844 -4.169375 3.94601563 -3.5 3.3125 C-2.8503125 2.68988281 -2.200625 2.06726563 -1.53125 1.42578125 C-0.77328125 0.72001953 -0.77328125 0.72001953 0 0 Z " fill="#9BB464" transform="translate(110,71)"/>
<path d="M0 0 C1.29640378 0.59393382 2.58698839 1.20057989 3.875 1.8125 C4.59429687 2.14894531 5.31359375 2.48539063 6.0546875 2.83203125 C8 4 8 4 10 7 C6.00118212 6.38479725 3.19641774 4.39731331 0 2 C0 1.34 0 0.68 0 0 Z " fill="#A79275" transform="translate(102,193)"/>
<path d="M0 0 C0.33 0.99 0.66 1.98 1 3 C-0.3125 4.5 -0.3125 4.5 -2 6 C-2.99 6 -3.98 6 -5 6 C-3.86695008 2.60085025 -2.87481525 1.94745549 0 0 Z " fill="#AF907B" transform="translate(176,192)"/>
<path d="M0 0 C2.31 1.98 4.62 3.96 7 6 C6.34 6.66 5.68 7.32 5 8 C4.731875 7.360625 4.46375 6.72125 4.1875 6.0625 C3.11332248 3.66868314 3.11332248 3.66868314 0 3 C0 2.01 0 1.02 0 0 Z " fill="#AEBF51" transform="translate(100,183)"/>
<path d="M0 0 C1.32 0.33 2.64 0.66 4 1 C4.33 2.32 4.66 3.64 5 5 C4.34 5 3.68 5 3 5 C3 4.34 3 3.68 3 3 C1.35 3.33 -0.3 3.66 -2 4 C-1.34 2.68 -0.68 1.36 0 0 Z " fill="#A18172" transform="translate(187,155)"/>
<path d="M0 0 C1.32 0 2.64 0 4 0 C4 0.66 4 1.32 4 2 C4.99 2.33 5.98 2.66 7 3 C6.67 3.99 6.34 4.98 6 6 C3.97945196 4.35830472 1.97956942 2.69088222 0 1 C0 0.67 0 0.34 0 0 Z " fill="#9BB06B" transform="translate(91,129)"/>
<path d="M0 0 C0.66 0 1.32 0 2 0 C1.43454163 3.95820859 0.19097652 6.6659053 -2 10 C-3 7 -3 7 -1.5625 3.875 C-1.046875 2.92625 -0.53125 1.9775 0 1 C0 0.67 0 0.34 0 0 Z " fill="#9DB670" transform="translate(153,101)"/>
<path d="M0 0 C0.75 1.625 0.75 1.625 1 4 C-0.9375 7.25 -0.9375 7.25 -3 10 C-4 7 -4 7 -3.22265625 5.17578125 C-2.1484375 3.45052083 -1.07421875 1.72526042 0 0 Z " fill="#9FB76C" transform="translate(101,81)"/>
<path d="M0 0 C0.66 0.33 1.32 0.66 2 1 C-0.21027154 4.37357234 -2.46399535 6.08864614 -6 8 C-4.55746343 4.63408134 -2.66735273 2.48952921 0 0 Z " fill="#99B663" transform="translate(132,81)"/>
</svg>
